<svg width="20" height="24" viewBox="0 0 20 24" fill="none" xmlns="http://www.w3.org/2000/svg">
<path fill-rule="evenodd" clip-rule="evenodd" d="M17.5181 12.8104V8.40678H0V0H19.5551V4.20339H17.5181V2.1017H2.03699V6.30509H19.5551V13.1461C19.5222 16.4877 17.7094 19.2287 14.7113 21.4096C13.6523 22.1799 12.5164 22.8251 11.3777 23.3509C10.9764 23.5363 10.6021 23.6938 10.2646 23.824C10.0566 23.9043 9.89029 23.9633 9.81615 23.9872L9.77647 24L9.73683 23.987C9.65379 23.9599 9.49659 23.904 9.28912 23.8239C8.95157 23.6936 8.5775 23.5361 8.17627 23.3508C7.03774 22.8249 5.90204 22.1797 4.8433 21.4095C1.87387 19.2492 0.0675382 16.5395 0.00185503 13.2407H0V10.5085H2.03699V12.8104C2.03699 15.3441 3.32072 17.4635 5.52281 19.1962C6.33598 19.8361 7.23142 20.3875 8.15979 20.8533C8.77526 21.1622 9.32941 21.3967 9.77782 21.5599C10.2257 21.3969 10.7802 21.1623 11.3957 20.8534C12.324 20.3876 13.2194 19.8362 14.0326 19.1963C16.2346 17.4635 17.5181 15.3441 17.5181 12.8104V12.8104Z" fill="#E31337"/>
</svg>
