<svg width="116" height="24" viewBox="0 0 116 24" fill="none" xmlns="http://www.w3.org/2000/svg">
  <path fill-rule="evenodd" clip-rule="evenodd" d="M18.1431 12.8104V8.40678H0.625V0H20.1801V4.20339H18.1431V2.1017H2.66199V6.30509H20.1801V13.1461C20.1472 16.4877 18.3344 19.2287 15.3363 21.4096C14.2773 22.1799 13.1414 22.8251 12.0027 23.3509C11.6014 23.5363 11.2271 23.6938 10.8896 23.824C10.6816 23.9043 10.5153 23.9633 10.4412 23.9872L10.4015 24L10.3618 23.987C10.2788 23.9599 10.1216 23.904 9.91412 23.8239C9.57657 23.6936 9.2025 23.5361 8.80127 23.3508C7.66273 22.8249 6.52704 22.1797 5.4683 21.4095C2.49887 19.2492 0.692538 16.5395 0.626855 13.2407H0.625V10.5085H2.66199V12.8104C2.66199 15.3441 3.94572 17.4635 6.14781 19.1962C6.96098 19.8361 7.85642 20.3875 8.78479 20.8533C9.40026 21.1622 9.95441 21.3967 10.4028 21.5599C10.8507 21.3969 11.4052 21.1623 12.0207 20.8534C12.949 20.3876 13.8444 19.8362 14.6576 19.1963C16.8596 17.4635 18.1431 15.3441 18.1431 12.8104Z" fill="#E31337"/>
  <path d="M31.0723 16.929V3.47998H33.4746V8.54945C33.7504 8.21693 34.1024 7.96904 34.5306 7.8058C34.9648 7.63652 35.4106 7.55187 35.8682 7.55187C36.5957 7.55187 37.2117 7.71814 37.7162 8.05066C38.2207 8.37714 38.5874 8.8064 38.8162 9.33843C39.0509 9.87047 39.1682 10.4811 39.1682 11.1703V16.929H36.7746V11.5966C36.7746 11.0524 36.6367 10.6141 36.361 10.2816C36.0912 9.94907 35.6805 9.7828 35.129 9.7828C34.6362 9.7828 34.2432 9.94907 33.9498 10.2816C33.6624 10.6141 33.504 11.0404 33.4746 11.5603V16.929H31.0723Z" fill="#1A1A1A"/>
  <path d="M41.3145 4.80391C41.3145 4.38069 41.4582 4.01793 41.7456 3.71564C42.039 3.41335 42.388 3.26221 42.7928 3.26221C43.2035 3.26221 43.5526 3.41335 43.84 3.71564C44.1275 4.01189 44.2712 4.37465 44.2712 4.80391C44.2712 5.21503 44.1275 5.5687 43.84 5.86495C43.5526 6.1612 43.2035 6.30933 42.7928 6.30933C42.388 6.30933 42.039 6.1612 41.7456 5.86495C41.4582 5.5687 41.3145 5.21503 41.3145 4.80391ZM41.596 16.9289V7.78755H43.9984V16.9289H41.596Z" fill="#1A1A1A"/>
  <path d="M45.4609 7.7876H48.0921L50.2921 13.9181L52.4041 7.7876H54.9296L51.4889 16.929H49.0865L45.4609 7.7876Z" fill="#1A1A1A"/>
  <path d="M55.4395 12.3221C55.4395 11.6147 55.5598 10.9557 55.8003 10.3451C56.0408 9.73446 56.3606 9.22662 56.7595 8.82154C57.1643 8.41042 57.6278 8.08998 58.1499 7.86024C58.6779 7.6305 59.2264 7.51562 59.7955 7.51562C61.1624 7.51562 62.233 7.93885 63.0074 8.78527C63.7877 9.62565 64.1778 10.7804 64.1778 12.2496C64.1778 12.3523 64.1749 12.4642 64.169 12.5851C64.1632 12.706 64.1573 12.8058 64.1514 12.8844C64.1455 12.963 64.1426 13.0053 64.1426 13.0113H57.7978C57.8213 13.6099 58.0501 14.1056 58.4842 14.4986C58.9184 14.8916 59.4346 15.0881 60.033 15.0881C61.0479 15.0881 61.7197 14.6256 62.0482 13.7006L64.0546 14.3082C63.814 15.1486 63.3418 15.8438 62.6378 16.394C61.9338 16.9381 61.0597 17.2102 60.0154 17.2102C59.4053 17.2102 58.8245 17.0984 58.273 16.8747C57.7216 16.651 57.2346 16.3366 56.8122 15.9315C56.3957 15.5204 56.0613 15.0035 55.8091 14.3807C55.5627 13.758 55.4395 13.0718 55.4395 12.3221H55.4395ZM57.8507 11.3245H61.8195C61.8019 10.8227 61.6259 10.3965 61.2915 10.0458C60.9571 9.69517 60.4701 9.51984 59.8307 9.51984C59.2499 9.51984 58.7806 9.70423 58.4227 10.073C58.0707 10.4418 57.88 10.859 57.8507 11.3245Z" fill="#1A1A1A"/>
  <path d="M65.3047 14.3807L67.3639 13.9182C67.3932 14.3112 67.5457 14.6437 67.8215 14.9158C68.1031 15.1818 68.4903 15.3148 68.983 15.3148C69.3585 15.3148 69.646 15.2271 69.8454 15.0518C70.0508 14.8765 70.1534 14.6588 70.1534 14.3989C70.1534 13.9394 69.8366 13.6431 69.2031 13.5101L68.0327 13.229C67.2055 13.0416 66.5836 12.706 66.1671 12.2223C65.7506 11.7387 65.5423 11.1643 65.5423 10.4993C65.5423 9.67098 65.8591 8.96664 66.4927 8.38624C67.1263 7.80583 67.9153 7.51562 68.8599 7.51562C69.3409 7.51562 69.778 7.57609 70.171 7.69701C70.57 7.81792 70.8956 7.9721 71.1478 8.15952C71.4001 8.3409 71.6142 8.5525 71.7902 8.79433C71.9662 9.03617 72.0953 9.26893 72.1774 9.49263C72.2596 9.71028 72.3124 9.92794 72.3358 10.1456L70.3382 10.6172C70.2972 10.2907 70.1564 10.0065 69.9158 9.7647C69.6812 9.51682 69.335 9.39288 68.8774 9.39288C68.5607 9.39288 68.2908 9.48054 68.0679 9.65587C67.8508 9.82515 67.7423 10.0398 67.7423 10.2998C67.7423 10.5174 67.8156 10.6958 67.9623 10.8348C68.1089 10.9739 68.3055 11.0676 68.5519 11.116L69.8102 11.3971C70.6609 11.5785 71.3121 11.92 71.7638 12.4219C72.2156 12.9176 72.4414 13.5101 72.4414 14.1994C72.4414 14.5802 72.3681 14.949 72.2214 15.3057C72.0806 15.6564 71.8724 15.9768 71.5966 16.267C71.3209 16.5512 70.9572 16.7779 70.5054 16.9472C70.0596 17.1225 69.558 17.2102 69.0007 17.2102C68.4903 17.2102 68.0239 17.1437 67.6015 17.0107C67.1849 16.8837 66.8417 16.7205 66.5719 16.521C66.3079 16.3154 66.0791 16.0827 65.8855 15.8227C65.6978 15.5627 65.5599 15.3148 65.4719 15.079C65.3839 14.8372 65.3282 14.6044 65.3047 14.3807Z" fill="#1A1A1A"/>
  <path d="M74.0859 4.80391C74.0859 4.38069 74.2297 4.01793 74.5171 3.71564C74.8105 3.41335 75.1595 3.26221 75.5643 3.26221C75.975 3.26221 76.324 3.41335 76.6115 3.71564C76.899 4.01189 77.0427 4.37465 77.0427 4.80391C77.0427 5.21503 76.899 5.5687 76.6115 5.86495C76.324 6.1612 75.975 6.30933 75.5643 6.30933C75.1595 6.30933 74.8105 6.1612 74.5171 5.86495C74.2297 5.5687 74.0859 5.21503 74.0859 4.80391ZM74.3675 16.9289V7.78755H76.7699V16.9289H74.3675Z" fill="#1A1A1A"/>
  <path d="M78.707 17.4279L80.863 16.8384C80.9451 17.3523 81.171 17.7665 81.5406 18.0809C81.9161 18.4013 82.3825 18.5615 82.9398 18.5615C84.512 18.5615 85.2982 17.7151 85.2982 16.0222V15.3512C85.0987 15.6837 84.7878 15.9618 84.3654 16.1855C83.943 16.4092 83.4326 16.521 82.8342 16.521C81.6491 16.521 80.6635 16.1008 79.8774 15.2605C79.0972 14.4201 78.707 13.359 78.707 12.0773C78.707 11.2732 78.8801 10.5326 79.2262 9.85544C79.5724 9.1783 80.0622 8.63719 80.6958 8.23212C81.3294 7.82705 82.0422 7.62451 82.8342 7.62451C83.4854 7.62451 84.0222 7.74542 84.4446 7.98726C84.8728 8.22304 85.175 8.51627 85.351 8.86693V7.78775H87.6653V15.9406C87.6653 16.4545 87.6096 16.9412 87.4982 17.4007C87.3926 17.8602 87.2195 18.2955 86.979 18.7066C86.7443 19.1177 86.448 19.4714 86.0902 19.7677C85.7382 20.07 85.2982 20.3058 84.7702 20.475C84.2422 20.6504 83.6555 20.738 83.0102 20.738C81.8427 20.738 80.8659 20.4146 80.0798 19.7677C79.2996 19.1268 78.842 18.3469 78.707 17.4279ZM81.1182 12.0773C81.1182 12.7847 81.3147 13.35 81.7078 13.7732C82.1067 14.1903 82.6201 14.3989 83.2478 14.3989C83.8638 14.3989 84.3654 14.1873 84.7526 13.7641C85.1398 13.3409 85.3334 12.7786 85.3334 12.0773C85.3334 11.3881 85.1339 10.8349 84.735 10.4177C84.336 9.9945 83.8403 9.78288 83.2478 9.78288C82.6377 9.78288 82.1302 9.9945 81.7254 10.4177C81.3206 10.8349 81.1182 11.3881 81.1182 12.0773Z" fill="#1A1A1A"/>
  <path d="M90.1016 16.9289V7.78756H92.4335V8.92116C92.6917 8.47376 93.0525 8.1352 93.5159 7.90545C93.9853 7.66967 94.4751 7.55176 94.9855 7.55176C96.0356 7.55176 96.8335 7.89034 97.3791 8.56748C97.9247 9.23857 98.1975 10.1061 98.1975 11.1702V16.9289H95.8039V11.5965C95.8039 11.0523 95.666 10.614 95.3903 10.2815C95.1205 9.94895 94.7098 9.78269 94.1583 9.78269C93.6479 9.78269 93.2431 9.96106 92.9439 10.3178C92.6506 10.6745 92.5039 11.1249 92.5039 11.669V16.9289H90.1016Z" fill="#1A1A1A"/>
  <path d="M99.9668 12.3221C99.9668 11.6147 100.087 10.9557 100.328 10.3451C100.568 9.73446 100.888 9.22662 101.287 8.82154C101.692 8.41042 102.155 8.08998 102.677 7.86024C103.205 7.6305 103.754 7.51562 104.323 7.51562C105.69 7.51562 106.76 7.93885 107.535 8.78527C108.315 9.62565 108.705 10.7804 108.705 12.2496C108.705 12.3523 108.702 12.4642 108.696 12.5851C108.69 12.706 108.685 12.8058 108.679 12.8844C108.673 12.963 108.67 13.0053 108.67 13.0113H102.325C102.349 13.6099 102.577 14.1056 103.012 14.4986C103.446 14.8916 103.962 15.0881 104.56 15.0881C105.575 15.0881 106.247 14.6256 106.576 13.7006L108.582 14.3082C108.341 15.1486 107.869 15.8438 107.165 16.394C106.461 16.9381 105.587 17.2102 104.543 17.2102C103.933 17.2102 103.352 17.0984 102.8 16.8747C102.249 16.651 101.762 16.3366 101.34 15.9315C100.923 15.5204 100.589 15.0035 100.336 14.3807C100.09 13.758 99.9668 13.0718 99.9668 12.3221ZM102.378 11.3245H106.347C106.329 10.8227 106.153 10.3965 105.819 10.0458C105.484 9.69517 104.997 9.51984 104.358 9.51984C103.777 9.51984 103.308 9.70423 102.95 10.073C102.598 10.4418 102.407 10.859 102.378 11.3245Z" fill="#1A1A1A"/>
  <path d="M110.588 16.9288V7.78741H112.92V9.14772C113.049 8.86357 113.216 8.62174 113.421 8.42222C113.633 8.21666 113.859 8.06854 114.099 7.97785C114.345 7.88112 114.574 7.8146 114.785 7.77833C115.003 7.736 115.22 7.71484 115.437 7.71484C115.577 7.71484 115.765 7.72695 116 7.75113V10.2451C115.759 10.1967 115.519 10.1725 115.278 10.1725C114.956 10.1725 114.662 10.2179 114.398 10.3086C114.14 10.3932 113.9 10.5322 113.677 10.7257C113.46 10.9131 113.289 11.1791 113.166 11.5238C113.049 11.8623 112.99 12.2704 112.99 12.7481V16.9288H110.588Z" fill="#1A1A1A"/>
</svg>
